<svg display="none" version="1.1" xmlns="http://www.w3.org/2000/svg" xmlns:xlink="http://www.w3.org/1999/xlink">
    <defs>
        <symbol id="icon-user" viewBox="0 0 1024 1024">
            <title>user</title>
            <path class="path1" d="M512 512c94.293 0 170.667-76.587 170.667-170.667 0-94.293-76.373-170.667-170.667-170.667s-170.667
                76.373-170.667 170.667c0 94.080 76.373 170.667 170.667 170.667zM512 597.333c-113.707 0-341.333
            56.96-341.333 170.667v85.333h682.667v-85.333c0-113.707-227.627-170.667-341.333-170.667z"></path>
        </symbol>
        <symbol id="icon-receipt" viewBox="0 0 1024 1024">
            <title>receipt</title>
            <path class="path1" d="M768 725.333h-512v-85.333h512v85.333zM768 554.667h-512v-85.333h512v85.333zM768 384h-512v-85.333h512v85.333zM128
                938.667l64-64 64 64 64-64 64 64 64-64 64 64 64-64 64 64 64-64 64 64 64-64 64 64v-853.333l-64 64-64-64-64 64-64-64-64 64-64-64-64
            64-64-64-64 64-64-64-64 64-64-64v853.333z"></path>
        </symbol>
        <symbol id="icon-view-carousel" viewBox="0 0 1024 1024">
            <title>view-carousel</title>
            <path class="path1" d="M298.667 810.667h426.667v-640h-426.667v640zM85.333 725.333h170.667v-469.333h-170.667v469.333zM768
            256v469.333h170.667v-469.333h-170.667z"></path>
        </symbol>
        <symbol id="icon-quick-contacts-mail" viewBox="0 0 1024 1024">
            <title>quick-contacts-mail</title>
            <path class="path1" d="M896 341.333v-42.667l-128 85.333-128-85.333v42.667l128 85.333 128-85.333zM938.667 128h-853.333c-47.147
                0-85.333 38.187-85.333 85.333v597.333c0 47.147 38.187 85.333 85.333 85.333h853.333c47.147 0 84.907-38.187
                84.907-85.333l0.427-597.333c0-47.147-38.187-85.333-85.333-85.333zM341.333 256c70.613 0 128 57.387 128 128 0
                70.827-57.387 128-128 128s-128-57.173-128-128c0-70.613 57.387-128 128-128zM597.333 768h-512v-42.667c0-85.333
            170.667-132.267 256-132.267s256 46.933 256 132.267v42.667zM938.667 512h-341.333v-256h341.333v256z"></path>
        </symbol>
        <symbol id="icon-insert-drive-file" viewBox="0 0 1024 1024">
            <title>insert-drive-file</title>
            <path class="path1" d="M256 85.333c-47.147 0-84.907 38.187-84.907 85.333l-0.427 682.667c0 47.147 37.76 85.333
                84.907 85.333h512.427c47.147 0 85.333-38.187 85.333-85.333v-512l-256-256h-341.333zM554.667 384v-234.667l234.667
            234.667h-234.667z"></path>
        </symbol>
        <symbol id="icon-edit" viewBox="0 0 1024 1024">
            <title>edit</title>
            <path class="path1" d="M128 736v160h160l472.107-472.107-160-160-472.107 472.107zM883.413 300.587c16.64-16.64
            16.64-43.733 0-60.373l-99.627-99.627c-16.64-16.64-43.733-16.64-60.373 0l-78.080 78.080 160 160 78.080-78.080z"></path>
        </symbol>
        <symbol id="icon-tag-faces" viewBox="0 0 1024 1024">
            <title>tag-faces</title>
            <path class="path1" d="M511.787 85.333c-235.733 0-426.453 190.933-426.453 426.667s190.72 426.667 426.453
                426.667c235.733 0 426.88-190.933 426.88-426.667s-191.147-426.667-426.88-426.667zM512 853.333c-188.587
                0-341.333-152.747-341.333-341.333s152.747-341.333 341.333-341.333 341.333 152.747 341.333 341.333-152.747
                341.333-341.333 341.333zM661.333 469.333c35.413 0 64-28.587 64-64s-28.587-64-64-64-64 28.587-64 64 28.587
                64 64 64zM362.667 469.333c35.413 0 64-28.587 64-64s-28.587-64-64-64-64 28.587-64 64 28.587 64 64 64zM512
            746.667c99.413 0 183.68-62.080 217.813-149.333h-435.627c34.133 87.253 118.4 149.333 217.813 149.333z"></path>
        </symbol>
        <symbol id="icon-store-mall-directory" viewBox="0 0 1024 1024">
            <title>store-mall-directory</title>
            <path class="path1" d="M853.333 170.667h-682.667v85.333h682.667v-85.333zM896 597.333v-85.333l-42.667-213.333h-682.667l-42.667
            213.333v85.333h42.667v256h426.667v-256h170.667v256h85.333v-256h42.667zM512 768h-256v-170.667h256v170.667z"></path>
        </symbol>
        <symbol id="icon-group" viewBox="0 0 1024 1024">
            <title>group</title>
            <path class="path1" d="M682.667 469.333c70.613 0 127.573-57.387 127.573-128s-56.96-128-127.573-128c-70.613 0-128 57.387-128
                128s57.387 128 128 128zM341.333 469.333c70.613 0 127.573-57.387 127.573-128s-56.96-128-127.573-128c-70.613 0-128 57.387-128
                128s57.387 128 128 128zM341.333 554.667c-99.627 0-298.667 49.92-298.667
                149.333v106.667h597.333v-106.667c0-99.413-199.040-149.333-298.667-149.333zM682.667 554.667c-12.373 0-26.24
            0.853-41.173 2.347 49.493 35.627 83.84 83.627 83.84 146.987v106.667h256v-106.667c0-99.413-199.040-149.333-298.667-149.333z"></path>
        </symbol>
        <symbol id="icon-star" viewBox="0 0 1024 1024">
            <title>star</title>
            <path class="path1" d="M512 736.853l263.68 159.147-69.973-299.947 232.96-201.813-306.773-26.027-119.893-282.88-119.893 282.88-306.773
            26.027 232.96 201.813-69.973 299.947z"></path>
        </symbol>
        <symbol id="icon-dashboard" viewBox="0 0 1024 1024">
            <title>dashboard</title>
            <path class="path1" d="M128 554.667h341.333v-426.667h-341.333v426.667zM128 896h341.333v-256h-341.333v256zM554.667
            896h341.333v-426.667h-341.333v426.667zM554.667 128v256h341.333v-256h-341.333z"></path>
        </symbol>
        <symbol id="icon-add" viewBox="0 0 1024 1024">
            <title>add</title>
            <path class="path1" d="M810.667 554.667h-256v256h-85.333v-256h-256v-85.333h256v-256h85.333v256h256v85.333z"></path>
        </symbol>
        <symbol id="icon-arrow-drop-down" viewBox="0 0 1024 1024">
            <title>arrow-drop-down</title>
            <path class="path1" d="M298.667 426.667l213.333 213.333 213.333-213.333z"></path>
        </symbol>
        <symbol id="icon-delete" viewBox="0 0 1024 1024">
            <title>delete</title>
            <path class="path1" d="M256 810.667c0 47.147 38.187 85.333 85.333 85.333h341.333c47.147 0 85.333-38.187
                85.333-85.333v-512h-512v512zM810.667 170.667h-149.333l-42.667-42.667h-213.333l-42.667
            42.667h-149.333v85.333h597.333v-85.333z"></path>
        </symbol>
        <symbol id="icon-visibility" viewBox="0 0 1024 1024">
            <title>visibility</title>
            <path class="path1" d="M512 192c-213.333 0-395.52 132.693-469.333 320 73.813 187.307 256 320 469.333 320
                213.547 0 395.52-132.693 469.333-320-73.813-187.307-255.787-320-469.333-320zM512 725.333c-117.76
                0-213.333-95.573-213.333-213.333s95.573-213.333
                213.333-213.333 213.333 95.573 213.333 213.333-95.573 213.333-213.333 213.333zM512 384c-70.613
            0-128 57.387-128 128s57.387 128 128 128 128-57.387 128-128-57.387-128-128-128z"></path>
        </symbol>
        <symbol id="icon-cloud-done" viewBox="0 0 1024 1024">
            <title>cloud-done</title>
            <path class="path1" d="M825.813 428.16c-29.013-146.773-158.507-257.493-313.813-257.493-123.307 0-230.187 69.973-283.733
                172.16-128.213 13.867-228.267 122.453-228.267 254.507 0 141.44 114.56 256 256 256h554.667c117.76 0 213.333-95.573 213.333-213.333
                0-112.64-87.68-203.947-198.187-211.84zM426.667 725.333l-149.333-149.333 60.373-60.373 88.96 88.96 220.8-220.8
            60.373 60.373-281.173 281.173z"></path>
        </symbol>
        <symbol id="icon-cancel" viewBox="0 0 1024 1024">
            <title>cancel</title>
            <path class="path1" d="M810.667 273.707l-60.373-60.373-238.293 238.293-238.293-238.293-60.373 60.373 238.293 238.293-238.293
            238.293 60.373 60.373 238.293-238.293 238.293 238.293 60.373-60.373-238.293-238.293z"></path>
        </symbol>
        <symbol id="icon-done" viewBox="0 0 1024 1024">
            <title>done</title>
            <path class="path1" d="M384 689.92l-177.92-177.92-60.373 60.373 238.293 238.293 512-512-60.373-60.373z"></path>
        </symbol>
        <symbol id="icon-search" viewBox="0 0 1024 1024">
            <title>search</title>
            <path class="path1" d="M661.333 597.333h-33.92l-11.733-11.733c41.813-48.427 66.987-111.36 66.987-180.267
                0-153.173-124.16-277.333-277.333-277.333s-277.333 124.16-277.333 277.333 124.16 277.333 277.333 277.333c68.907
                0 131.84-25.173 180.267-66.773l11.733 11.733v33.707l213.333 212.907 63.573-63.573-212.907-213.333zM405.333 597.333c-106.027
            0-192-85.973-192-192s85.973-192 192-192 192 85.973 192 192-85.973 192-192 192z"></path>
        </symbol>
        <symbol id="icon-swap-vert" viewBox="0 0 1024 1024">
            <title>swap-vert</title>
            <path class="path1" d="M682.667 725.76v-299.093h-85.333v299.093h-128l170.667 170.24 170.667-170.24h-128zM384 128l-170.667
            170.24h128v299.093h85.333v-299.093h128l-170.667-170.24z"></path>
        </symbol>
        <symbol id="icon-my-library-add" viewBox="0 0 1024 1024">
            <title>my-library-add</title>
            <path class="path1" d="M170.667 256h-85.333v597.333c0 47.147 38.187 85.333 85.333
                85.333h597.333v-85.333h-597.333v-597.333zM853.333 85.333h-512c-47.147 0-85.333 38.187-85.333
                85.333v512c0 47.147 38.187 85.333 85.333 85.333h512c47.147 0 85.333-38.187
                85.333-85.333v-512c0-47.147-38.187-85.333-85.333-85.333zM810.667
            469.333h-170.667v170.667h-85.333v-170.667h-170.667v-85.333h170.667v-170.667h85.333v170.667h170.667v85.333z"></path>
        </symbol>
        <symbol id="icon-control-point-duplicate" viewBox="0 0 1024 1024">
            <title>control-point-duplicate</title>
            <path class="path1" d="M682.667 341.333h-85.333v128h-128v85.333h128v128h85.333v-128h128v-85.333h-128zM85.333
                512c0-119.040 70.187-221.653 171.093-269.653v-91.947c-149.12 52.48-256.427 194.56-256.427 361.6s107.307 309.12
                256.427 361.6v-91.947c-100.907-48-171.093-150.613-171.093-269.653zM640 128c-211.84 0-384 172.16-384 384s172.16
                384 384 384 384-172.16 384-384-172.16-384-384-384zM640 810.667c-164.693 0-298.667-133.973-298.667-298.667s133.973-298.667
            298.667-298.667 298.667 133.973 298.667 298.667-133.973 298.667-298.667 298.667z"></path>
        </symbol>
        <symbol id="icon-check-box" viewBox="0 0 1024 1024">
            <title>check-box</title>
            <path class="path1" d="M810.667 128h-597.333c-47.36 0-85.333 38.4-85.333 85.333v597.333c0 46.933 37.973 85.333 85.333
                85.333h597.333c47.36 0 85.333-38.4 85.333-85.333v-597.333c0-46.933-37.973-85.333-85.333-85.333zM426.667
            725.333l-213.333-213.333 60.16-60.16 153.173 152.747 323.84-323.84 60.16 60.587-384 384z"></path>
        </symbol>
        <symbol id="icon-check-box-outline-blank" viewBox="0 0 1024 1024">
            <title>check-box-outline-blank</title>
            <path class="path1" d="M810.667 213.333v597.333h-597.333v-597.333h597.333zM810.667 128h-597.333c-46.933
                0-85.333 38.4-85.333 85.333v597.333c0 46.933 38.4 85.333 85.333 85.333h597.333c46.933 0 85.333-38.4
            85.333-85.333v-597.333c0-46.933-38.4-85.333-85.333-85.333z"></path>
        </symbol>
    </defs>
</svg>